<svg xmlns="http://www.w3.org/2000/svg" xmlns:xlink="http://www.w3.org/1999/xlink" version="1.1" x="0px" y="0px" viewBox="0 0 32 40" enable-background="new 0 0 32 32" xml:space="preserve"><path d="M9.964,9.138c0.152-0.058,0.316-0.108,0.467-0.146c-0.021,0.037-0.044,0.072-0.063,0.104  c-0.333,0.545-0.548,0.928-0.505,1.273c0.014,0.115,0.094,0.244,0.189,0.309c0.086,0.057,0.178,0.08,0.281,0.08  c0.156,0,0.342-0.051,0.586-0.118c0.248-0.069,0.531-0.152,0.738-0.148c0.262,0.009,0.404-0.169,0.41-0.39s-0.169-0.404-0.391-0.41  c-0.248,0.003-0.541,0.062-0.814,0.135c0.066-0.115,0.135-0.229,0.188-0.313c0.289-0.473,0.48-0.787,0.359-1.086  c-0.049-0.117-0.205-0.249-0.328-0.279C10.675,8.045,9.968,8.28,9.683,8.389C9.476,8.466,9.37,8.696,9.448,8.903  S9.758,9.216,9.964,9.138z"/><path d="M12.97,7.256c0.265-0.218,0.598-0.449,0.857-0.591c-0.031,0.164-0.073,0.355-0.107,0.506c-0.184,0.826-0.29,1.396-0.1,1.783  c0.051,0.104,0.178,0.208,0.289,0.238c0.041,0.01,0.083,0.016,0.125,0.016c0.23,0,0.474-0.166,0.867-0.434  c0.301-0.205,0.674-0.46,0.932-0.542c0.211-0.066,0.328-0.292,0.261-0.503c-0.066-0.209-0.289-0.325-0.503-0.26  c-0.369,0.117-0.779,0.396-1.141,0.645c-0.035,0.023-0.074,0.049-0.113,0.075c0.037-0.276,0.113-0.618,0.164-0.845  c0.162-0.729,0.26-1.166,0.018-1.444c-0.107-0.121-0.264-0.185-0.428-0.168c-0.549,0.048-1.387,0.706-1.63,0.906  c-0.171,0.141-0.194,0.392-0.054,0.563S12.8,7.396,12.97,7.256z"/><path d="M17.45,6.077c0.203-0.068,0.428-0.129,0.617-0.166c-0.043,0.067-0.086,0.134-0.123,0.191  c-0.382,0.582-0.628,0.99-0.592,1.36c0.011,0.114,0.089,0.249,0.184,0.315c0.092,0.064,0.189,0.091,0.307,0.091  c0.158,0,0.354-0.047,0.615-0.11c0.277-0.066,0.627-0.148,0.828-0.141c0.232,0.021,0.409-0.158,0.421-0.378  s-0.157-0.409-0.378-0.421c-0.299-0.018-0.657,0.065-0.984,0.144c0.092-0.151,0.194-0.31,0.268-0.422  c0.328-0.501,0.545-0.831,0.427-1.146c-0.044-0.119-0.202-0.26-0.324-0.295c-0.446-0.123-1.278,0.137-1.522,0.219  c-0.209,0.072-0.321,0.3-0.25,0.508C17.015,6.037,17.239,6.146,17.45,6.077z"/><path d="M28.042,17.857v-1.425c0-1.367-1.111-2.479-2.479-2.479H12.59c-0.222,0-0.399,0.178-0.399,0.399v3.464h-1.371  c0.545-0.521,0.887-1.252,0.887-2.063c0-1.578-1.283-2.862-2.861-2.862s-2.861,1.284-2.861,2.862c0,0.811,0.342,1.541,0.887,2.063  H5.59v-4.452c0-0.909-0.739-1.647-1.647-1.647s-1.648,0.738-1.648,1.647v11.919c0,0.909,0.74,1.648,1.648,1.648  s1.647-0.739,1.647-1.648v-1.54h20.82v1.54c0,0.909,0.739,1.648,1.647,1.648s1.648-0.739,1.648-1.648V19.88  C29.706,18.88,28.989,18.044,28.042,17.857z M12.989,14.753h12.574c0.926,0,1.679,0.754,1.679,1.68v1.385H12.989V14.753z   M6.782,15.755c0-1.137,0.926-2.063,2.063-2.063s2.062,0.926,2.062,2.063s-0.925,2.063-2.062,2.063S6.782,16.892,6.782,15.755z   M28.905,25.284c0,0.468-0.381,0.848-0.848,0.848s-0.848-0.38-0.848-0.848v-1.939c0-0.222-0.179-0.4-0.4-0.4H5.19  c-0.222,0-0.4,0.179-0.4,0.4v1.939c0,0.468-0.381,0.848-0.848,0.848s-0.848-0.38-0.848-0.848V13.365  c0-0.468,0.381-0.848,0.848-0.848s0.848,0.38,0.848,0.848v4.852c0,0.222,0.179,0.399,0.4,0.399h22.451  c0.697,0,1.264,0.566,1.264,1.264V25.284z"/><text x="0" y="47" fill="#000000" font-size="5px" font-weight="bold" font-family="'Helvetica Neue', Helvetica, Arial-Unicode, Arial, Sans-serif">Created by NTT</text><text x="0" y="52" fill="#000000" font-size="5px" font-weight="bold" font-family="'Helvetica Neue', Helvetica, Arial-Unicode, Arial, Sans-serif">from the Noun Project</text></svg>