<svg width="21" height="20" viewBox="0 0 21 20" fill="none" xmlns="http://www.w3.org/2000/svg">
<g id="ep:back">
<path id="Vector" d="M4.875 9.875H17.375C17.4082 9.875 17.4399 9.88817 17.4634 9.91161C17.4868 9.93505 17.5 9.96685 17.5 10C17.5 10.0332 17.4868 10.0649 17.4634 10.0884C17.4399 10.1118 17.4082 10.125 17.375 10.125H4.875C4.84185 10.125 4.81005 10.1118 4.78661 10.0884C4.76317 10.0649 4.75 10.0332 4.75 10C4.75 9.96685 4.76317 9.93505 4.78661 9.91161C4.81005 9.88817 4.84185 9.875 4.875 9.875Z" fill="#1890FF" stroke="#1890FF"/>
<path id="Vector_2" d="M5.13389 10L10.3176 15.1825C10.435 15.2999 10.5009 15.459 10.5009 15.625C10.5009 15.791 10.435 15.9501 10.3176 16.0675C10.2003 16.1849 10.0411 16.2508 9.87514 16.2508C9.70917 16.2508 9.55 16.1849 9.43264 16.0675L3.80764 10.4425C3.74944 10.3844 3.70326 10.3155 3.67175 10.2395C3.64024 10.1636 3.62402 10.0822 3.62402 10C3.62402 9.91779 3.64024 9.83639 3.67175 9.76045C3.70326 9.68452 3.74944 9.61555 3.80764 9.5575L9.43264 3.9325C9.55 3.81514 9.70917 3.74921 9.87514 3.74921C10.0411 3.74921 10.2003 3.81514 10.3176 3.9325C10.435 4.04985 10.5009 4.20903 10.5009 4.375C10.5009 4.54097 10.435 4.70014 10.3176 4.8175L5.13389 10Z" fill="#1890FF"/>
</g>
</svg>
