<svg width="120" height="120" viewBox="0 0 120 120" fill="none" xmlns="http://www.w3.org/2000/svg">
<g id="Star">
<path id="Vector" d="M60.4 54V51.4H77.8862C74.8879 54.8833 70.9328 57.4203 66.503 58.6901C61.8021 60.0376 56.7986 59.8915 52.1844 58.272C47.5701 56.6525 43.5729 53.6396 40.7452 49.6498C37.9176 45.6599 36.3992 40.8903 36.4 36V35.9999C36.3992 31.1097 37.9176 26.34 40.7452 22.3502C43.5729 18.3603 47.5701 15.3474 52.1844 13.7279C56.7986 12.1084 61.8021 11.9623 66.503 13.3098C70.9328 14.5796 74.8879 17.1167 77.8862 20.6H60.4V18V17.6H60C55.12 17.6 50.4399 19.5385 46.9892 22.9892C43.5386 26.4399 41.6 31.12 41.6 36C41.6 40.88 43.5386 45.5601 46.9892 49.0107C50.4399 52.4614 55.12 54.4 60 54.4H60.4V54ZM90 66.4H90.0002C92.0315 66.3991 94.0275 66.9317 95.7884 67.9445C97.3443 68.8394 98.6685 70.0814 99.6599 71.57H60H59.6V71.6H30.054C26.4697 71.6 23.6 74.4585 23.6 78C23.6 86.0066 27.4159 91.977 33.8232 96.0554C40.3278 100.207 49.5424 102.4 60 102.4H85.4836C78.3564 105.915 69.4682 107.6 60 107.6C48.9178 107.6 38.6324 105.293 31.025 100.445C23.3137 95.5289 18.4 87.9869 18.4 78C18.4 71.5461 23.6357 66.4 30.054 66.4H90ZM94.8431 95.6H86.766L86.808 95.57H85.56H60.4V90.37H98.6031C97.5787 92.2662 96.3152 94.024 94.8431 95.6ZM83.3611 39.4C83.0941 41.2114 82.631 42.9514 81.9883 44.6H60.4V39.4H83.3611ZM81.9888 27.4C82.6448 29.075 83.1058 30.8199 83.3627 32.6H60.4V27.4H81.9888ZM60.4 83.57V78.37H101.598C101.575 80.1894 101.388 81.9199 101.051 83.57H60.4Z" fill="#697077" stroke="#F0F2F5" stroke-width="0.8"/>
</g>
</svg>
