<svg width="24" height="24" viewBox="0 0 24 24" fill="none" xmlns="http://www.w3.org/2000/svg">
<g id="Icon/24/delete">
<g id="trash-2">
<path id="Vector" d="M4.5 7H6.16667H19.5" stroke="#D1305A" stroke-width="2" stroke-linecap="round" stroke-linejoin="round"/>
<path id="Vector_2" d="M17.8334 7.00002V18.6667C17.8334 19.1087 17.6578 19.5326 17.3453 19.8452C17.0327 20.1578 16.6088 20.3334 16.1667 20.3334H7.83341C7.39139 20.3334 6.96746 20.1578 6.6549 19.8452C6.34234 19.5326 6.16675 19.1087 6.16675 18.6667V7.00002M8.66675 7.00002V5.33335C8.66675 4.89133 8.84234 4.4674 9.1549 4.15484C9.46746 3.84228 9.89139 3.66669 10.3334 3.66669H13.6667C14.1088 3.66669 14.5327 3.84228 14.8453 4.15484C15.1578 4.4674 15.3334 4.89133 15.3334 5.33335V7.00002" stroke="#D1305A" stroke-width="2" stroke-linecap="round" stroke-linejoin="round"/>
<path id="Vector_3" d="M10.3333 11.1667V16.1667" stroke="#D1305A" stroke-width="2" stroke-linecap="round" stroke-linejoin="round"/>
<path id="Vector_4" d="M13.6667 11.1667V16.1667" stroke="#D1305A" stroke-width="2" stroke-linecap="round" stroke-linejoin="round"/>
</g>
</g>
</svg>
