<svg width="24" height="24" viewBox="0 0 24 24" fill="none" xmlns="http://www.w3.org/2000/svg">
<g id="Group">
<path id="Vector" d="M10.2705 10.2731C9.81219 10.7316 9.55476 11.3534 9.55487 12.0017C9.55499 12.65 9.81264 13.2718 10.2712 13.7301C10.7297 14.1885 11.3515 14.4459 11.9998 14.4458C12.6481 14.4457 13.2699 14.188 13.7282 13.7295" stroke="#878D96" stroke-width="2" stroke-linecap="round" stroke-linejoin="round"/>
<path id="Vector_2" d="M17.7212 17.7114C16.0067 18.7841 14.0224 19.3467 12 19.3333C7.6 19.3333 3.93333 16.8889 1 12C2.55467 9.40889 4.31467 7.50467 6.28 6.28733M9.77556 4.88667C10.5077 4.73845 11.253 4.66474 12 4.66667C16.4 4.66667 20.0667 7.11111 23 12C22.186 13.3567 21.3146 14.5263 20.3869 15.5078M1 1L23 23" stroke="#878D96" stroke-width="2" stroke-linecap="round" stroke-linejoin="round"/>
</g>
</svg>
