<svg width="21" height="20" viewBox="0 0 21 20" fill="none" xmlns="http://www.w3.org/2000/svg">
<path d="M10.1084 1.83321C12.7751 1.83321 13.1084 1.83321 14.1917 1.91654C16.9417 1.99988 18.1917 3.33321 18.2751 5.99988C18.3584 7.08321 18.3584 7.33321 18.3584 9.99988C18.3584 12.6665 18.3584 12.9999 18.2751 13.9999C18.1917 16.6665 16.8584 17.9999 14.1917 18.0832C13.1084 18.1665 12.8584 18.1665 10.1084 18.1665C7.44173 18.1665 7.1084 18.1665 6.1084 18.0832C3.3584 17.9999 2.1084 16.6665 2.02507 13.9999C1.94173 12.9165 1.94173 12.6665 1.94173 9.99988C1.94173 7.33321 1.94173 6.99988 2.02507 5.99988C2.1084 3.33321 3.44173 1.99988 6.1084 1.91654C7.1084 1.83321 7.44173 1.83321 10.1084 1.83321ZM10.1084 -0.00012207C7.3584 -0.00012207 7.02506 -0.00012207 6.02506 0.0832113C2.3584 0.249878 0.358398 2.24988 0.191732 5.91654C0.108398 6.91654 0.108398 7.24988 0.108398 9.99988C0.108398 12.7499 0.108398 13.0832 0.191732 14.0832C0.358398 17.7499 2.3584 19.7499 6.02506 19.9165C7.02506 19.9999 7.3584 19.9999 10.1084 19.9999C12.8584 19.9999 13.1917 19.9999 14.1917 19.9165C17.8584 19.7499 19.8584 17.7499 20.0251 14.0832C20.1084 13.0832 20.1084 12.7499 20.1084 9.99988C20.1084 7.24988 20.1084 6.91654 20.0251 5.91654C19.8584 2.24988 17.8584 0.249878 14.1917 0.0832113C13.1917 -0.00012207 12.8584 -0.00012207 10.1084 -0.00012207ZM10.1084 4.83321C7.27507 4.83321 4.94173 7.16654 4.94173 9.99988C4.94173 12.8332 7.27507 15.1665 10.1084 15.1665C12.9417 15.1665 15.2751 12.8332 15.2751 9.99988C15.2751 7.16654 12.9417 4.83321 10.1084 4.83321ZM10.1084 13.3332C8.27507 13.3332 6.77506 11.8332 6.77506 9.99988C6.77506 8.16654 8.27507 6.66654 10.1084 6.66654C11.9417 6.66654 13.4417 8.16654 13.4417 9.99988C13.4417 11.8332 11.9417 13.3332 10.1084 13.3332ZM15.4417 3.49988C14.7751 3.49988 14.2751 3.99988 14.2751 4.66654C14.2751 5.33321 14.7751 5.83321 15.4417 5.83321C16.1084 5.83321 16.6084 5.33321 16.6084 4.66654C16.6084 3.99988 16.1084 3.49988 15.4417 3.49988Z" fill="white"/>
</svg>
