<svg width="21" height="20" viewBox="0 0 21 20" fill="none" xmlns="http://www.w3.org/2000/svg">
<path d="M14.4834 -0.00012207H5.7334C2.6084 -0.00012207 0.108398 2.49988 0.108398 5.62488V14.3749C0.108398 17.4999 2.6084 19.9999 5.7334 19.9999H14.4834C17.6084 19.9999 20.1084 17.4999 20.1084 14.3749V5.62488C20.1084 2.49988 17.6084 -0.00012207 14.4834 -0.00012207ZM7.6084 15.6249C7.6084 15.9999 7.3584 16.2499 6.9834 16.2499H4.4834C4.1084 16.2499 3.8584 15.9999 3.8584 15.6249V8.12488C3.8584 7.74988 4.1084 7.49988 4.4834 7.49988H6.9834C7.3584 7.49988 7.6084 7.74988 7.6084 8.12488V15.6249ZM5.7334 6.87488C4.6709 6.87488 3.8584 6.06238 3.8584 4.99988C3.8584 3.93738 4.6709 3.12488 5.7334 3.12488C6.7959 3.12488 7.6084 3.93738 7.6084 4.99988C7.6084 6.06238 6.7959 6.87488 5.7334 6.87488ZM16.3584 15.6249C16.3584 15.9999 16.1084 16.2499 15.7334 16.2499H13.8584C13.4834 16.2499 13.2334 15.9999 13.2334 15.6249V13.4374V12.8124V11.5624C13.2334 11.0624 12.7959 10.6249 12.2959 10.6249C11.7959 10.6249 11.3584 11.0624 11.3584 11.5624V12.8124V13.4374V15.6249C11.3584 15.9999 11.1084 16.2499 10.7334 16.2499H8.8584C8.4834 16.2499 8.2334 15.9999 8.2334 15.6249V8.12488C8.2334 7.74988 8.4834 7.49988 8.8584 7.49988H11.3584C11.5459 7.49988 11.6709 7.56238 11.7959 7.68738C12.1709 7.56238 12.5459 7.49988 12.9209 7.49988C14.7959 7.49988 16.3584 9.06238 16.3584 10.9374V15.6249Z" fill="white"/>
</svg>
