<svg width="20" height="19" viewBox="0 0 20 19" fill="none" xmlns="http://www.w3.org/2000/svg">
<path fill-rule="evenodd" clip-rule="evenodd" d="M12.1668 11.4153C11.7672 11.8149 11.1194 11.8149 10.7199 11.4153L10.5453 11.2407C10.1108 10.8062 9.43241 10.7602 8.87174 11.0116C6.75248 11.962 4.17535 11.5701 2.43597 9.83072C0.189949 7.58082 0.18607 3.93054 2.43597 1.68452C4.68588 -0.561506 8.33615 -0.561506 10.5822 1.68452C12.3215 3.42389 12.7135 6.00102 11.7631 8.12029C11.5116 8.68095 11.5577 9.35931 11.9922 9.7938L12.1668 9.96843C12.5664 10.368 12.5664 11.0158 12.1668 11.4153ZM3.55317 2.80171C1.92393 4.42707 1.92393 7.06877 3.55317 8.69801C5.18241 10.3272 7.8241 10.3272 9.44946 8.69801C11.0787 7.07265 11.0787 4.43095 9.44946 2.80171C7.8241 1.17247 5.18241 1.17247 3.55317 2.80171ZM15.4649 11.9494L19.4219 15.9093C19.8603 16.3438 19.8603 17.0692 19.4219 17.5114L18.2621 18.6712C17.8237 19.1096 17.1022 19.1096 16.6638 18.6712L12.703 14.7104C11.9404 13.9478 11.9404 12.7115 12.703 11.9489C13.4657 11.1862 14.7025 11.1864 15.4649 11.9494Z" fill="white"/>
</svg>
