<svg width="26" height="20" viewBox="0 0 26 20" fill="none" xmlns="http://www.w3.org/2000/svg">
<path d="M8.2392 19.9999C17.5259 19.9999 22.6045 12.306 22.6045 5.6346C22.6045 5.416 22.6 5.19853 22.5899 4.98189C23.5757 4.2693 24.4327 3.37981 25.1086 2.36774C24.204 2.76966 23.2306 3.04031 22.2093 3.16234C23.2516 2.53735 24.0521 1.54822 24.4296 0.369331C23.4539 0.947861 22.3736 1.36825 21.2238 1.59496C20.3021 0.613674 18.99 -0.00012207 17.5382 -0.00012207C14.7497 -0.00012207 12.4885 2.2611 12.4885 5.04823C12.4885 5.44455 12.533 5.82968 12.6192 6.19941C8.42337 5.98865 4.70253 3.97933 2.21264 0.92463C1.77853 1.67053 1.52859 2.53763 1.52859 3.4621C1.52859 5.21364 2.42004 6.76003 3.77554 7.66491C2.94735 7.63944 2.16926 7.41161 1.48885 7.0332C1.48773 7.05419 1.48773 7.07546 1.48773 7.09757C1.48773 9.54296 3.22835 11.5845 5.53827 12.0471C5.11424 12.1627 4.6681 12.2249 4.2074 12.2249C3.88217 12.2249 3.5659 12.1924 3.2583 12.1339C3.90093 14.1396 5.76498 15.5995 7.97498 15.6406C6.24667 16.995 4.0697 17.8019 1.70436 17.8019C1.29712 17.8019 0.895203 17.7787 0.5 17.7319C2.73435 19.1639 5.38741 19.9999 8.2392 19.9999Z" fill="white"/>
</svg>
