<svg xmlns="http://www.w3.org/2000/svg" width="24" height="25" viewBox="0 0 24 25" fill="none">
  <g clip-path="url(#clip0_222_4770)">
    <path d="M23.0571 8.77041C22.4548 7.34463 21.5815 6.04926 20.4857 4.95612C19.3926 3.86034 18.0972 2.98706 16.6714 2.38469C15.1902 1.7579 13.6205 1.44183 12 1.44183C10.3795 1.44183 8.80982 1.7579 7.32857 2.38469C5.90279 2.98706 4.60743 3.86034 3.51429 4.95612C2.4185 6.04926 1.54523 7.34463 0.942857 8.77041C0.316071 10.2517 0 11.8213 0 13.4418C0 16.9963 1.56161 20.3445 4.28304 22.632L4.32857 22.6695C4.48393 22.7981 4.67946 22.8704 4.88036 22.8704H19.1223C19.3232 22.8704 19.5187 22.7981 19.6741 22.6695L19.7196 22.632C22.4384 20.3445 24 16.9963 24 13.4418C24 11.8213 23.6812 10.2517 23.0571 8.77041ZM18.6804 20.8347H5.31964C4.28463 19.9015 3.45741 18.761 2.89167 17.4874C2.32593 16.2138 2.0343 14.8355 2.03571 13.4418C2.03571 10.7793 3.07232 8.27755 4.95536 6.39719C6.83839 4.51416 9.34018 3.47755 12 3.47755C14.6625 3.47755 17.1643 4.51416 19.0446 6.39719C20.9277 8.28023 21.9643 10.782 21.9643 13.4418C21.9643 16.2704 20.7723 18.9463 18.6804 20.8347ZM14.9866 9.73201C14.9463 9.69213 14.8919 9.66976 14.8353 9.66976C14.7786 9.66976 14.7242 9.69213 14.6839 9.73201L12.4205 11.9954C11.9196 11.8615 11.3652 11.99 10.9714 12.3838C10.832 12.523 10.7213 12.6883 10.6458 12.8703C10.5703 13.0524 10.5315 13.2475 10.5315 13.4445C10.5315 13.6416 10.5703 13.8367 10.6458 14.0187C10.7213 14.2007 10.832 14.366 10.9714 14.5052C11.1106 14.6447 11.276 14.7553 11.458 14.8308C11.64 14.9063 11.8351 14.9452 12.0321 14.9452C12.2292 14.9452 12.4243 14.9063 12.6063 14.8308C12.7883 14.7553 12.9537 14.6447 13.0929 14.5052C13.2794 14.3192 13.4136 14.0873 13.4818 13.8329C13.55 13.5784 13.5498 13.3105 13.4812 13.0561L15.7446 10.7927C15.8277 10.7097 15.8277 10.5731 15.7446 10.49L14.9866 9.73201ZM11.4107 7.01326H12.5893C12.7071 7.01326 12.8036 6.91683 12.8036 6.79898V4.65612C12.8036 4.53826 12.7071 4.44183 12.5893 4.44183H11.4107C11.2929 4.44183 11.1964 4.53826 11.1964 4.65612V6.79898C11.1964 6.91683 11.2929 7.01326 11.4107 7.01326ZM18.375 12.8525V14.0311C18.375 14.149 18.4714 14.2454 18.5893 14.2454H20.7321C20.85 14.2454 20.9464 14.149 20.9464 14.0311V12.8525C20.9464 12.7347 20.85 12.6383 20.7321 12.6383H18.5893C18.4714 12.6383 18.375 12.7347 18.375 12.8525ZM18.7152 7.57041L17.8821 6.73737C17.8419 6.69749 17.7875 6.67512 17.7308 6.67512C17.6741 6.67512 17.6197 6.69749 17.5795 6.73737L16.0634 8.25344C16.0235 8.29372 16.0011 8.3481 16.0011 8.40478C16.0011 8.46146 16.0235 8.51585 16.0634 8.55612L16.8964 9.38916C16.9795 9.47219 17.1161 9.47219 17.1991 9.38916L18.7152 7.87308C18.7982 7.79005 18.7982 7.65344 18.7152 7.57041ZM6.43125 6.73737C6.39098 6.69749 6.33659 6.67512 6.27991 6.67512C6.22323 6.67512 6.16885 6.69749 6.12857 6.73737L5.29554 7.57041C5.25566 7.61068 5.23329 7.66507 5.23329 7.72175C5.23329 7.77842 5.25566 7.83281 5.29554 7.87308L6.81161 9.38916C6.89464 9.47219 7.03125 9.47219 7.11429 9.38916L7.94732 8.55612C8.03036 8.47308 8.03036 8.33648 7.94732 8.25344L6.43125 6.73737ZM5.30357 12.6383H3.16071C3.04286 12.6383 2.94643 12.7347 2.94643 12.8525V14.0311C2.94643 14.149 3.04286 14.2454 3.16071 14.2454H5.30357C5.42143 14.2454 5.51786 14.149 5.51786 14.0311V12.8525C5.51786 12.7347 5.42143 12.6383 5.30357 12.6383Z" fill="#1890FF"/>
  </g>
  <defs>
    <clipPath id="clip0_222_4770">
      <rect width="24" height="24" fill="white" transform="translate(0 0.152893)"/>
    </clipPath>
  </defs>
</svg>